<?xml version="1.0" encoding="UTF-8"?>
<svg id="Layer_1" xmlns="http://www.w3.org/2000/svg" version="1.1" viewBox="0 0 595.28 841.89">
  <!-- Generator: Adobe Illustrator 29.1.0, SVG Export Plug-In . SVG Version: 2.1.0 Build 142)  -->
  <defs>
    <style>
      .st0 {
        fill: #fff;
      }
    </style>
  </defs>
  <g id="DJm9BZ.tif">
    <g>
      <path d="M595.28,246.2v275.45c-83.54,45.27-185.18,87.51-282.2,67.71-27.41-5.59-44.15-17.71-68.61-28-54.15-22.79-116.88-28.77-174.3-15.3-23.76,5.57-47.27,15.95-68.88,26.95V246.2h593.99Z"/>
      <path class="st0" d="M595.28,521.65v74.7H-.28V244.65h595.55v1.56H1.28v326.8c21.61-11,45.12-21.38,68.88-26.95,57.43-13.47,120.16-7.49,174.3,15.3,24.46,10.29,41.2,22.41,68.61,28,97.02,19.8,198.66-22.44,282.2-67.71Z"/>
    </g>
  </g>
</svg>