<?xml version="1.0" encoding="UTF-8"?>
<svg id="Layer_1" xmlns="http://www.w3.org/2000/svg" version="1.1" viewBox="0 0 839.1 742">
  <!-- Generator: Adobe Illustrator 29.1.0, SVG Export Plug-In . SVG Version: 2.1.0 Build 142)  -->
  <defs>
    <style>
      .st0 {
        fill: #e4e6f4;
      }
    </style>
  </defs>
  <path class="st0" d="M-.3,232.8c2-.6,1.4.5,2,1.1,10.2,11.6,25.2,23.8,37.5,33.4,55.2,43,126.9,77.4,197.1,85.7,64.9,7.7,124.5-12.1,188.8-14.4,68.2-2.5,110.8,12.4,166.8,48.6,50,32.4,84,70.6,150.2,60.4,37.8-5.9,70.7-29.1,95.6-56.9,1.1-.5,1.4.3.9,2.6-.2,2.4-1.5,30.8,0,30.7.6.3.6.5,0,.9-1.7,0-2.4,1-3.4,2.1-47.8,53.1-116.8,75.2-181.8,36.4-43.2-25.8-77.3-58.8-126.4-76.9-75-27.8-146-7.5-221.5.9-104.4,11.6-210.1-28.8-285.7-97.9-10.8-7.5-21.5-20.9-25.5-23.9-.9-.6-.8-1.2-2.2-.8"/>
</svg>